<svg version="1.0" xmlns="http://www.w3.org/2000/svg"
     width="618.000000pt" height="618.000000pt" viewBox="0 0 618.000000 618.000000"
     preserveAspectRatio="xMidYMid meet">
    <metadata>
        Created by potrace 1.15, written by Peter Selinger 2001-2017
    </metadata>
    <g transform="translate(0.000000,618.000000) scale(0.100000,-0.100000)"
       fill="#000000" stroke="none">
        <path d="M2430 6141 c-63 -21 -153 -55 -200 -74 -47 -19 -114 -43 -150 -52
-219 -55 -374 -146 -623 -366 -102 -89 -134 -124 -156 -168 -32 -63 -192 -537
-211 -621 -7 -30 -36 -139 -66 -241 -29 -102 -67 -239 -83 -305 -16 -65 -43
-172 -60 -237 -32 -123 -39 -205 -20 -254 9 -25 7 -30 -19 -53 -17 -14 -41
-33 -55 -42 -14 -10 -35 -37 -47 -62 -36 -76 -43 -160 -31 -376 10 -178 15
-210 55 -370 24 -96 67 -246 96 -333 28 -87 60 -197 70 -245 23 -103 36 -117
119 -127 33 -4 64 -12 70 -19 5 -6 19 -81 31 -166 42 -302 74 -443 171 -739
40 -122 68 -223 65 -235 -7 -30 -77 -63 -317 -150 -266 -97 -339 -127 -413
-172 -86 -53 -198 -136 -264 -197 -32 -29 -71 -62 -89 -75 -30 -21 -257 -102
-288 -102 -13 0 -15 -26 -15 -180 l0 -180 1995 0 1994 0 51 73 c28 39 71 104
97 142 25 39 57 82 71 98 21 22 23 30 13 40 -10 10 -19 4 -47 -28 -18 -22 -38
-52 -45 -67 -6 -14 -41 -47 -77 -72 -37 -25 -79 -56 -94 -68 -30 -24 -46 -20
-30 8 36 64 273 294 303 294 18 0 39 51 39 93 0 28 15 20 38 -22 30 -53 28
-119 -7 -222 -35 -104 -70 -171 -117 -226 l-37 -43 523 0 522 0 -6 53 c-27
227 -44 279 -97 304 -22 11 -27 21 -32 70 -7 57 -40 151 -90 248 -14 28 -33
76 -42 107 -30 106 -117 208 -278 328 l-58 43 6 86 c3 47 2 120 -3 161 l-8 75
-16 -37 c-9 -20 -44 -116 -78 -215 -33 -98 -68 -188 -76 -200 -17 -27 -62 -31
-71 -8 -3 9 -24 25 -46 36 -32 17 -51 20 -88 15 -37 -5 -50 -3 -56 9 -8 14
-14 14 -56 -2 l-47 -17 -42 30 c-24 16 -51 46 -62 67 -17 35 -17 48 -7 143 8
77 18 119 38 160 25 50 26 58 15 105 -7 28 -12 79 -12 114 0 62 -2 66 -48 122
-68 82 -92 125 -92 165 0 39 -15 61 -115 172 -98 109 -192 186 -227 186 -36 0
-36 -16 -3 -136 43 -156 131 -345 238 -511 65 -99 71 -117 51 -158 -8 -18 -22
-36 -30 -39 -7 -3 -42 8 -76 24 -35 16 -82 32 -106 36 l-42 7 -23 -52 -22 -52
-185 6 c-323 11 -399 20 -471 53 -76 35 -108 65 -90 86 20 24 104 58 142 58
20 0 53 -10 75 -21 21 -11 57 -21 79 -23 l40 -3 5 59 c5 51 10 62 40 87 19 16
50 34 69 40 55 18 122 54 160 87 63 53 28 74 -160 92 -172 17 -201 29 -296
122 -101 99 -118 137 -110 237 3 37 21 115 40 172 23 67 39 141 46 209 15 137
51 296 108 472 42 129 46 153 47 243 l1 100 -49 68 c-45 63 -52 69 -108 84
-53 15 -72 28 -164 114 -82 77 -113 100 -156 114 -58 19 -297 136 -340 166
-14 11 -30 19 -35 19 -5 0 -28 19 -51 42 -52 51 -57 92 -14 110 15 6 97 15
182 20 85 5 172 13 194 19 l39 10 -6 56 c-5 52 -4 57 25 84 l31 28 -13 108
c-29 250 -57 323 -160 423 -64 62 -68 87 -31 166 26 55 36 67 73 83 56 25 105
75 147 149 53 95 78 102 406 113 622 21 757 22 846 6 46 -9 106 -18 132 -21
97 -11 255 -116 421 -280 131 -128 175 -227 241 -531 35 -163 37 -202 26 -415
-12 -234 -3 -387 36 -585 28 -138 28 -146 27 -500 -1 -280 -5 -384 -17 -469
-23 -148 -23 -274 0 -283 22 -9 48 25 94 122 57 122 78 197 90 324 16 159 27
193 66 206 93 31 181 175 147 241 -11 21 -12 35 -4 57 6 20 7 50 0 91 -12 80
-28 444 -36 831 l-6 310 -38 110 c-35 103 -67 184 -110 280 -10 22 -33 74 -50
115 -54 126 -218 335 -311 397 -33 22 -50 45 -91 129 -32 67 -63 115 -88 137
-41 38 -387 211 -560 282 -58 23 -169 63 -247 89 l-142 46 -438 0 -438 -1
-115 -38z m-30 -2915 c0 -73 7 -83 70 -91 80 -11 90 -15 90 -33 0 -22 -53 -73
-96 -96 -58 -29 -121 -37 -187 -25 -73 13 -157 47 -157 63 0 18 57 76 75 76
39 0 96 43 140 105 26 36 51 65 56 65 5 0 9 -29 9 -64z m208 -259 c2 -9 -21
-65 -51 -125 -30 -59 -68 -150 -85 -203 -36 -116 -84 -215 -160 -329 -104
-155 -218 -243 -332 -257 l-47 -5 -45 78 c-78 135 -83 156 -83 349 0 161 -1
172 -23 202 -55 77 -65 141 -29 177 21 21 28 23 83 15 69 -9 392 -33 446 -33
28 0 58 14 137 68 128 86 181 104 189 63z m793 -1653 c52 -9 117 -26 144 -39
70 -32 218 -172 240 -227 22 -57 27 -310 6 -348 -8 -14 -51 -61 -97 -105 -114
-109 -119 -147 -32 -217 l38 -29 62 19 c158 49 177 49 178 -5 0 -16 -15 -32
-57 -58 -32 -20 -72 -53 -90 -73 l-32 -36 -44 22 c-24 12 -56 22 -71 22 -28 0
-34 18 -14 38 7 7 20 12 30 12 28 0 22 12 -38 70 -30 30 -64 72 -75 92 -18 34
-45 58 -67 58 -5 0 -29 -16 -54 -35 l-45 -35 -69 10 c-38 6 -99 13 -136 16
-57 5 -76 12 -126 45 -39 26 -119 61 -228 99 -182 64 -218 88 -212 139 2 21
17 33 76 64 l73 39 177 10 c97 5 202 16 232 25 71 19 218 88 247 115 39 36 46
30 -140 108 -99 41 -282 90 -336 90 -37 0 -92 23 -115 48 -17 20 -17 21 26 26
23 4 90 11 148 17 58 5 134 16 170 23 89 19 122 19 231 0z m1093 -429 c38 -31
44 -41 49 -86 7 -54 43 -144 77 -186 18 -23 20 -40 20 -192 l0 -166 -44 -27
c-66 -43 -155 -34 -156 15 0 7 -9 114 -20 238 -17 197 -17 233 -5 284 11 51
11 62 -3 91 -12 27 -13 36 -2 49 19 23 37 19 84 -20z"/>
        <path d="M3553 3700 c-112 -9 -128 -15 -192 -72 -48 -42 -77 -47 -122 -21 -15
9 -31 14 -34 11 -3 -3 -12 -31 -21 -63 -8 -33 -24 -73 -34 -91 -41 -65 -20
-114 120 -279 43 -52 117 -145 163 -207 86 -115 152 -185 203 -211 46 -23 192
-67 225 -67 42 0 37 18 -21 75 -56 55 -62 76 -24 94 42 19 26 43 -53 81 -122
59 -120 67 14 75 135 9 150 13 206 58 72 59 74 60 104 43 16 -9 73 -32 127
-52 l99 -36 35 35 34 35 -68 57 c-90 74 -148 107 -257 145 -49 17 -101 38
-114 47 -23 15 -53 61 -53 81 0 5 27 36 61 68 98 96 98 127 1 172 -51 24 -70
27 -177 28 -66 1 -166 -2 -222 -6z"/>
        <path d="M5580 544 c-19 -8 -38 -21 -42 -29 -5 -7 -22 -16 -38 -20 -22 -5 -36
-18 -50 -46 -17 -33 -24 -38 -44 -33 -16 4 -25 1 -29 -10 -15 -39 -51 8 -63
83 -7 47 -19 53 -28 15 -8 -32 3 -114 15 -114 6 0 6 -7 0 -18 -16 -31 -24
-154 -12 -214 5 -32 20 -80 32 -108 l21 -50 68 0 68 0 7 86 c4 47 5 101 2 121
-5 31 -2 40 23 63 18 17 30 38 30 53 0 25 23 57 40 57 5 0 20 4 35 10 21 8 24
13 16 29 -8 15 -6 22 9 32 16 12 18 22 13 62 -6 53 -15 56 -73 31z"/>
        <path d="M5798 443 c-10 -2 -18 -9 -18 -14 0 -5 -15 -26 -34 -46 -18 -21 -36
-50 -40 -65 -4 -20 -15 -30 -39 -36 -30 -8 -32 -12 -38 -63 -8 -69 -26 -134
-50 -181 l-19 -38 275 0 275 0 -1 108 c-1 59 -4 147 -8 197 l-6 89 -33 10
c-23 6 -40 5 -60 -4 -29 -14 -154 -21 -146 -8 3 5 19 15 36 24 24 12 28 18 17
25 -14 9 -80 10 -111 2z"/>
    </g>
</svg>
